<svg width="150" height="150" viewBox="0 0 150 150" fill="none" xmlns="http://www.w3.org/2000/svg">
<mask id="mask0_41_288" style="mask-type:luminance" maskUnits="userSpaceOnUse" x="84" y="85" width="30" height="31">
<path d="M84.7114 85.135H113.999V115.195H84.7114V85.135Z" fill="white"/>
</mask>
<g mask="url(#mask0_41_288)">
<mask id="mask1_41_288" style="mask-type:luminance" maskUnits="userSpaceOnUse" x="84" y="85" width="30" height="31">
<path fill-rule="evenodd" clip-rule="evenodd" d="M112.388 115.149C111.698 115.149 111.049 114.66 110.885 113.934L106.911 97.262C106.628 96.0832 105.938 95.3985 104.394 94.8685L85.7353 88.1771C84.9222 87.894 84.5207 86.9983 84.8038 86.1902C85.0868 85.3822 85.9824 84.9754 86.7905 85.2585L105.449 91.9499C107.029 92.5161 109.263 93.6125 109.953 96.5721L113.927 113.244C114.127 114.093 113.602 114.907 112.789 115.107C112.635 115.107 112.511 115.149 112.388 115.149Z" fill="white"/>
</mask>
<g mask="url(#mask1_41_288)">
<path d="M104.513 129.013L70.3918 105.35L94.1356 71.1113L128.257 94.7741L104.513 129.013Z" fill="#008FDD"/>
</g>
</g>
<mask id="mask2_41_288" style="mask-type:luminance" maskUnits="userSpaceOnUse" x="84" y="85" width="4" height="43">
<path d="M84.7629 85.1865H87.8513V127.908H84.7629V85.1865Z" fill="white"/>
</mask>
<g mask="url(#mask2_41_288)">
<mask id="mask3_41_288" style="mask-type:luminance" maskUnits="userSpaceOnUse" x="84" y="85" width="4" height="43">
<path fill-rule="evenodd" clip-rule="evenodd" d="M86.3126 127.883C85.4633 127.883 84.7734 127.193 84.7734 126.344V86.7563C84.7734 85.9071 85.4633 85.2174 86.3126 85.2174C87.1619 85.2174 87.8515 85.9071 87.8515 86.7563V126.344C87.8515 127.152 87.1619 127.883 86.3126 127.883Z" fill="white"/>
</mask>
<g mask="url(#mask3_41_288)">
<path d="M87.8436 128.04L82.5892 127.771L84.7816 85.0598L90.036 85.3294L87.8436 128.04Z" fill="#008FDD"/>
</g>
</g>
<mask id="mask4_41_288" style="mask-type:luminance" maskUnits="userSpaceOnUse" x="66" y="79" width="22" height="10">
<path d="M66.4391 79.3702H87.8515V88.2749H66.4391V79.3702Z" fill="white"/>
</mask>
<g mask="url(#mask4_41_288)">
<mask id="mask5_41_288" style="mask-type:luminance" maskUnits="userSpaceOnUse" x="66" y="79" width="22" height="10">
<path fill-rule="evenodd" clip-rule="evenodd" d="M67.9781 88.2543C67.1289 88.2543 66.4392 87.5645 66.4392 86.7152V80.9555C66.4392 80.1062 67.1289 79.4164 67.9781 79.4164C68.8274 79.4164 69.5173 80.1062 69.5173 80.9555V86.7152C69.5585 87.5645 68.8274 88.2543 67.9781 88.2543ZM86.2715 88.2543C85.4222 88.2543 84.7324 87.5645 84.7324 86.7152V80.9555C84.7324 80.1062 85.4222 79.4164 86.2715 79.4164C87.1208 79.4164 87.8104 80.1062 87.8104 80.9555V86.7152C87.8104 87.5645 87.1208 88.2543 86.2715 88.2543Z" fill="white"/>
</mask>
<g mask="url(#mask5_41_288)">
<path d="M71.8462 97.5453L62.5967 81.6527L82.4026 70.1255L91.6523 86.0181L71.8462 97.5453Z" fill="#008FDD"/>
</g>
</g>
<mask id="mask6_41_288" style="mask-type:luminance" maskUnits="userSpaceOnUse" x="59" y="49" width="37" height="37">
<path d="M59.0784 49.9281H95.2633V85.4439H59.0784V49.9281Z" fill="white"/>
</mask>
<g mask="url(#mask6_41_288)">
<mask id="mask7_41_288" style="mask-type:luminance" maskUnits="userSpaceOnUse" x="59" y="49" width="37" height="37">
<path fill-rule="evenodd" clip-rule="evenodd" d="M62.1361 58.8895V66.7595C62.1361 71.953 64.6532 76.8171 68.8687 79.7408C71.3446 81.4446 74.1806 82.3351 77.1043 82.3351C85.381 82.3351 92.0724 75.3606 92.0724 66.7595V58.1224C89.1952 57.474 86.6781 56.1357 85.0567 54.3495C82.4626 57.3916 77.3102 59.1776 73.8203 59.1776C70.0475 59.1776 68.668 58.6526 66.887 57.7571C65.4613 58.3233 63.8399 58.7299 62.1361 58.8895ZM77.1455 85.4182C73.5784 85.4182 70.1298 84.3218 67.1701 82.2939C62.1001 78.804 59.0992 73.0082 59.0992 66.7595V57.4328C59.0992 56.5835 59.7891 55.8937 60.6384 55.8937C62.7075 55.8526 64.6944 55.4459 66.3568 54.679C66.8048 54.4782 67.2886 54.4782 67.7363 54.7202L68.0194 54.8437C69.6408 55.693 70.4541 56.1408 73.9027 56.1408C77.4338 56.1408 82.7045 53.7473 83.5538 51.0295C83.7544 50.4223 84.2846 49.9743 84.9333 49.9333C85.5817 49.8921 86.1891 50.2574 86.4362 50.8649C87.4502 53.0936 90.3686 54.8797 93.8997 55.3275C94.6718 55.4511 95.238 56.0995 95.238 56.8666V66.8058C95.1917 77.023 87.0796 85.4182 77.1455 85.4182Z" fill="white"/>
</mask>
<g mask="url(#mask7_41_288)">
<path d="M82.8187 102.581L42.2271 73.2093L71.5186 32.7286L112.11 62.1008L82.8187 102.581Z" fill="#008FDD"/>
</g>
</g>
<mask id="mask8_41_288" style="mask-type:luminance" maskUnits="userSpaceOnUse" x="40" y="85" width="30" height="31">
<path d="M40.3429 85.135H69.5791V115.195H40.3429V85.135Z" fill="white"/>
</mask>
<g mask="url(#mask8_41_288)">
<mask id="mask9_41_288" style="mask-type:luminance" maskUnits="userSpaceOnUse" x="40" y="85" width="30" height="31">
<path fill-rule="evenodd" clip-rule="evenodd" d="M41.8969 115.149C41.7735 115.149 41.6551 115.149 41.5316 115.107C40.6823 114.907 40.1933 114.052 40.394 113.244L44.3676 96.5721C45.0574 93.6125 47.245 92.5161 48.8302 91.9499L67.4889 85.2585C68.3022 84.9754 69.1927 85.3822 69.4758 86.1902C69.7589 87.0035 69.3523 87.894 68.5441 88.1771L49.8854 94.8685C48.3464 95.3935 47.6928 96.0472 47.4097 97.262L43.4361 113.934C43.2352 114.66 42.5868 115.149 41.8969 115.149Z" fill="white"/>
</mask>
<g mask="url(#mask9_41_288)">
<path d="M60.1764 128.986L26.071 105.369L49.7758 71.1376L83.8812 94.7549L60.1764 128.986Z" fill="#008FDD"/>
</g>
</g>
<mask id="mask10_41_288" style="mask-type:luminance" maskUnits="userSpaceOnUse" x="66" y="85" width="22" height="18">
<path d="M66.4391 85.1865H87.903V102.224H66.4391V85.1865Z" fill="white"/>
</mask>
<g mask="url(#mask10_41_288)">
<mask id="mask11_41_288" style="mask-type:luminance" maskUnits="userSpaceOnUse" x="66" y="85" width="22" height="18">
<path fill-rule="evenodd" clip-rule="evenodd" d="M77.1451 102.208C76.6201 102.208 76.1311 101.925 75.848 101.519L66.7219 87.6058C66.2329 86.8749 66.4388 85.902 67.1697 85.4542C67.9006 84.9652 68.8735 85.1711 69.3213 85.902L77.1503 97.8693L85.0203 85.902C85.5093 85.1711 86.441 84.9705 87.1719 85.4542C87.9028 85.9432 88.1034 86.8749 87.6197 87.6058L78.4524 101.519C78.159 101.925 77.67 102.208 77.1451 102.208Z" fill="white"/>
</mask>
<g mask="url(#mask11_41_288)">
<path d="M78.3816 113.076L57.6648 94.5433L75.9553 74.0975L96.6721 92.6303L78.3816 113.076Z" fill="#008FDD"/>
</g>
</g>
<mask id="mask12_41_288" style="mask-type:luminance" maskUnits="userSpaceOnUse" x="66" y="85" width="4" height="43">
<path d="M66.4391 85.1865H69.5274V127.908H66.4391V85.1865Z" fill="white"/>
</mask>
<g mask="url(#mask12_41_288)">
<mask id="mask13_41_288" style="mask-type:luminance" maskUnits="userSpaceOnUse" x="66" y="85" width="4" height="43">
<path fill-rule="evenodd" clip-rule="evenodd" d="M67.9781 127.883C67.1289 127.883 66.4392 127.193 66.4392 126.344V86.7563C66.4392 85.9071 67.1289 85.2174 67.9781 85.2174C68.8274 85.2174 69.5173 85.9071 69.5173 86.7563V126.344C69.5585 127.152 68.8274 127.883 67.9781 127.883Z" fill="white"/>
</mask>
<g mask="url(#mask13_41_288)">
<path d="M69.5499 128.043L64.2533 127.771L66.4471 85.0576L71.7437 85.3297L69.5499 128.043Z" fill="#008FDD"/>
</g>
</g>
<mask id="mask14_41_288" style="mask-type:luminance" maskUnits="userSpaceOnUse" x="48" y="113" width="4" height="9">
<path d="M48.3721 113.033H51.5119V121.114H48.3721V113.033Z" fill="white"/>
</mask>
<g mask="url(#mask14_41_288)">
<mask id="mask15_41_288" style="mask-type:luminance" maskUnits="userSpaceOnUse" x="48" y="113" width="4" height="9">
<path fill-rule="evenodd" clip-rule="evenodd" d="M49.9269 121.109C49.0776 121.109 48.3879 120.419 48.3879 119.57V114.582C48.3879 113.733 49.0776 113.043 49.9269 113.043C50.7762 113.043 51.466 113.733 51.466 114.582V119.529C51.5123 120.378 50.8226 121.109 49.9269 121.109Z" fill="white"/>
</mask>
<g mask="url(#mask15_41_288)">
<path d="M51.2976 121.899L46.3478 120.555L48.6023 112.253L53.5519 113.597L51.2976 121.899Z" fill="#008FDD"/>
</g>
</g>
<mask id="mask16_41_288" style="mask-type:luminance" maskUnits="userSpaceOnUse" x="102" y="113" width="4" height="9">
<path d="M102.778 113.033H105.918V121.114H102.778V113.033Z" fill="white"/>
</mask>
<g mask="url(#mask16_41_288)">
<mask id="mask17_41_288" style="mask-type:luminance" maskUnits="userSpaceOnUse" x="102" y="113" width="4" height="9">
<path fill-rule="evenodd" clip-rule="evenodd" d="M104.359 121.109C103.51 121.109 102.82 120.419 102.82 119.57V114.582C102.82 113.733 103.51 113.043 104.359 113.043C105.208 113.043 105.898 113.733 105.898 114.582V119.529C105.903 120.378 105.213 121.109 104.359 121.109Z" fill="white"/>
</mask>
<g mask="url(#mask17_41_288)">
<path d="M105.691 121.888L100.781 120.556L103.031 112.264L107.942 113.597L105.691 121.888Z" fill="#008FDD"/>
</g>
</g>
<mask id="mask18_41_288" style="mask-type:luminance" maskUnits="userSpaceOnUse" x="75" y="112" width="4" height="17">
<path d="M75.6008 112.93H78.6892V128.681H75.6008V112.93Z" fill="white"/>
</mask>
<g mask="url(#mask18_41_288)">
<mask id="mask19_41_288" style="mask-type:luminance" maskUnits="userSpaceOnUse" x="75" y="112" width="4" height="17">
<path fill-rule="evenodd" clip-rule="evenodd" d="M77.145 128.655C76.2957 128.655 75.6061 127.965 75.6061 127.116V114.5C75.6061 113.651 76.2957 112.961 77.145 112.961C77.9943 112.961 78.684 113.651 78.684 114.5V127.116C78.684 127.965 77.9943 128.655 77.145 128.655Z" fill="white"/>
</mask>
<g mask="url(#mask19_41_288)">
<path d="M78.625 129.076L73.457 128.355L75.6645 112.54L80.8324 113.261L78.625 129.076Z" fill="#008FDD"/>
</g>
</g>
<mask id="mask20_41_288" style="mask-type:luminance" maskUnits="userSpaceOnUse" x="22" y="20" width="110" height="109">
<path d="M22.8423 20.0742H131.5V128.681H22.8423V20.0742Z" fill="white"/>
</mask>
<g mask="url(#mask20_41_288)">
<mask id="mask21_41_288" style="mask-type:luminance" maskUnits="userSpaceOnUse" x="22" y="20" width="110" height="109">
<path fill-rule="evenodd" clip-rule="evenodd" d="M77.1448 23.1985C48.9535 23.1985 25.9969 46.1552 25.9969 74.3826C25.9969 102.574 48.9535 125.531 77.1448 125.531C105.372 125.531 128.329 102.574 128.329 74.3826C128.288 46.1552 105.331 23.1985 77.1448 23.1985ZM77.1448 128.655C47.2137 128.655 22.8776 104.319 22.8776 74.3877C22.8725 44.4515 47.2084 20.0742 77.1448 20.0742C107.076 20.0742 131.453 44.4515 131.453 74.3826C131.412 104.319 107.076 128.655 77.1448 128.655Z" fill="white"/>
</mask>
<g mask="url(#mask21_41_288)">
<path d="M95.0177 179.925L-28.3978 92.2191L59.3084 -31.1962L182.724 56.5099L95.0177 179.925Z" fill="#008FDD"/>
</g>
</g>
<mask id="mask22_41_288" style="mask-type:luminance" maskUnits="userSpaceOnUse" x="10" y="7" width="69" height="69">
<path d="M10.3857 7.66943H78.6894V75.9731H10.3857V7.66943Z" fill="white"/>
</mask>
<g mask="url(#mask22_41_288)">
<mask id="mask23_41_288" style="mask-type:luminance" maskUnits="userSpaceOnUse" x="10" y="7" width="69" height="69">
<path fill-rule="evenodd" clip-rule="evenodd" d="M11.9658 75.9678C11.1165 75.9678 10.4269 75.2781 10.4269 74.4288C10.4269 37.6005 40.358 7.71057 77.1451 7.71057C77.9944 7.71057 78.6841 8.40022 78.6841 9.24951C78.6841 10.0988 77.9944 10.7887 77.1451 10.7887C42.0616 10.7887 13.546 39.3043 13.546 74.3876C13.546 75.2369 12.8563 75.9678 11.9658 75.9678Z" fill="white"/>
</mask>
<g mask="url(#mask23_41_288)">
<path d="M55.7798 108.198L-21.8031 53.0633L33.3317 -24.5197L110.915 30.6151L55.7798 108.198Z" fill="#008FDD"/>
</g>
</g>
<mask id="mask24_41_288" style="mask-type:luminance" maskUnits="userSpaceOnUse" x="62" y="0" width="17" height="11">
<path d="M62.6813 0H78.7406V10.8092H62.6813V0Z" fill="white"/>
</mask>
<g mask="url(#mask24_41_288)">
<mask id="mask25_41_288" style="mask-type:luminance" maskUnits="userSpaceOnUse" x="62" y="0" width="17" height="11">
<path fill-rule="evenodd" clip-rule="evenodd" d="M77.145 10.7887C76.8619 10.7887 76.62 10.7063 76.3729 10.5878L63.4739 2.96492C62.743 2.51695 62.5011 1.58542 62.9077 0.813336C63.3557 0.0824709 64.2872 -0.159609 65.0593 0.247142L77.9583 7.87006C78.6892 8.31803 78.931 9.24955 78.5245 10.0216C78.159 10.5416 77.67 10.7887 77.145 10.7887Z" fill="white"/>
</mask>
<g mask="url(#mask25_41_288)">
<path d="M70.2441 18.99L57.0356 5.00018L71.1873 -8.36108L84.3957 5.6287L70.2441 18.99Z" fill="#008FDD"/>
</g>
</g>
<mask id="mask26_41_288" style="mask-type:luminance" maskUnits="userSpaceOnUse" x="58" y="89" width="84" height="53">
<path d="M58.7183 89.6646H141.691V141.137H58.7183V89.6646Z" fill="white"/>
</mask>
<g mask="url(#mask26_41_288)">
<mask id="mask27_41_288" style="mask-type:luminance" maskUnits="userSpaceOnUse" x="58" y="89" width="84" height="53">
<path fill-rule="evenodd" clip-rule="evenodd" d="M77.1036 141.106C71.4262 141.106 65.6253 140.375 59.9069 138.836C59.0936 138.635 58.5686 137.74 58.8105 136.932C59.0111 136.118 59.9069 135.593 60.7149 135.835C94.5837 144.879 129.502 124.722 138.587 90.8536C138.788 90.0403 139.684 89.5154 140.492 89.7572C141.305 89.9579 141.83 90.8536 141.588 91.6617C133.605 121.392 106.551 141.106 77.1036 141.106Z" fill="white"/>
</mask>
<g mask="url(#mask27_41_288)">
<path d="M94.5596 186.126L31.1422 113.447L105.839 48.2684L169.257 120.947L94.5596 186.126Z" fill="#008FDD"/>
</g>
</g>
<mask id="mask28_41_288" style="mask-type:luminance" maskUnits="userSpaceOnUse" x="58" y="135" width="15" height="15">
<path d="M58.7183 135.732H72.4099V149.63H58.7183V135.732Z" fill="white"/>
</mask>
<g mask="url(#mask28_41_288)">
<mask id="mask29_41_288" style="mask-type:luminance" maskUnits="userSpaceOnUse" x="58" y="135" width="15" height="15">
<path fill-rule="evenodd" clip-rule="evenodd" d="M70.7781 149.584C70.3714 149.584 69.9648 149.419 69.6817 149.095L59.2174 138.388C58.61 137.781 58.61 136.808 59.2586 136.196C59.866 135.588 60.8388 135.588 61.4514 136.237L71.9155 146.943C72.5229 147.55 72.5229 148.523 71.8745 149.136C71.545 149.419 71.1435 149.584 70.7781 149.584Z" fill="white"/>
</mask>
<g mask="url(#mask29_41_288)">
<path d="M67.9618 156.115L52.0404 144.995L63.1715 129.057L79.0929 140.177L67.9618 156.115Z" fill="#008FDD"/>
</g>
</g>
</svg>
